# xmcd
#
# Track frame offsets: 
#        150
#        16505
#        44522
#        65437
#        82695
#        107425
#        126845
#        149620
#        175277
#        194592
#        216140
#        238800
#
# Disc length: 3419 seconds
#
# Revision: 0
# Processed by: cddbd v1.5.2PL0 Copyright (c) Steve Scherf et al.
# Submitted via: ExactAudioCopy v1.0b3
#
DISCID=a40d590c
DTITLE=Tuan Vu, VA - Tinh Khong Hoi Tiec
DYEAR=1992
DGENRE=
TTITLE0=Linda Trang Dai - Thieng dang ai an
TTITLE1=Tuan Vu - Ngay sau se ra sao
TTITLE2=Thanh Tuyen - Neu doi khong co anh
TTITLE3=Duy Quang - Dua em ve
TTITLE4=hai Ly - Am tham
TTITLE5=Tuan Vu - Yeu nguoi nhu the do
TTITLE6=Ngoc Lan - Chieu tan
TTITLE7=Tuan Vu - Chuyen do khong em
TTITLE8=Nhu Mai - Tinh khong hoi tiec
TTITLE9=Duy Quang - Chi co mot nguoi
TTITLE10=Hai Ly - Tren dinh mua dong
TTITLE11=Tuan Vu - Kiep cam ca
EXTD=
EXTT0=
EXTT1=
EXTT2=
EXTT3=
EXTT4=
EXTT5=
EXTT6=
EXTT7=
EXTT8=
EXTT9=
EXTT10=
EXTT11=
PLAYORDER=
